# xmcd
#
# Track frame offsets: 
#        150
#        18845
#        36545
#        56895
#        74565
#        91327
#        107335
#        123295
#        139547
#
# Disc length: 2070 seconds
#
# Revision: 0
# Processed by: cddbd v1.5.1PL0 Copyright (c) Steve Scherf et al.
# Submitted via: ExactAudioCopy v0.95a5
#
DISCID=78081409
DTITLE=Bobby Bland - Members Only
DYEAR=1985
DGENRE=Blues
TTITLE0=Members Only
TTITLE1=In The Ghetto
TTITLE2=I've Just Got to Know
TTITLE3=Straight From the Shoulder
TTITLE4=Sweet Woman's Love
TTITLE5=Can We Make Love Tonight
TTITLE6=Sweet Surrender
TTITLE7=I Need Your Love So Bad
TTITLE8=Heart Open Up Again
EXTD=
EXTT0=
EXTT1=
EXTT2=
EXTT3=
EXTT4=
EXTT5=
EXTT6=
EXTT7=
EXTT8=
PLAYORDER=
